<?xml version="1.0" standalone="no"?>
<!DOCTYPE svg PUBLIC "-//W3C//DTD SVG 20010904//EN"
 "http://www.w3.org/TR/2001/REC-SVG-20010904/DTD/svg10.dtd">
<svg version="1.0" xmlns="http://www.w3.org/2000/svg"
 width="1024.000000pt" height="1024.000000pt" viewBox="0 0 1024.000000 1024.000000"
 preserveAspectRatio="xMidYMid meet">
<metadata>
Created by potrace 1.15, written by Peter Selinger 2001-2017
</metadata>
<g transform="translate(0.000000,1024.000000) scale(0.100000,-0.100000)"
fill="#000000" stroke="none">
<path d="M1505 10233 c-258 -34 -526 -134 -740 -278 -204 -137 -343 -276 -480
-480 -124 -184 -212 -398 -262 -635 -17 -81 -18 -255 -18 -3720 l0 -3635 23
-107 c101 -471 363 -852 765 -1113 166 -108 385 -195 607 -242 81 -17 255 -18
3720 -18 l3635 0 107 23 c690 148 1202 660 1350 1350 l23 107 0 3635 c0 3465
-1 3639 -18 3720 -50 237 -138 451 -262 635 -137 204 -276 343 -480 480 -177
119 -375 203 -606 257 l-94 22 -3620 2 c-1991 0 -3633 -1 -3650 -3z m6672
-1739 c82 -28 149 -72 211 -138 54 -57 80 -101 108 -186 18 -53 19 -153 22
-2745 l2 -2690 404 -405 c260 -261 411 -420 425 -447 29 -57 29 -149 0 -206
-29 -58 -728 -757 -786 -786 -57 -28 -149 -29 -206 0 -29 14 -538 516 -1639
1617 l-1598 1597 0 507 0 508 507 0 508 0 472 -472 473 -473 0 1453 0 1452
-1960 0 -1960 0 0 -1960 0 -1960 978 0 977 0 720 -720 720 -720 -2215 2
c-2129 3 -2217 4 -2270 22 -87 29 -125 52 -193 115 -69 65 -105 124 -134 216
-17 58 -18 176 -18 3045 0 2871 1 2987 18 3045 27 87 53 132 109 191 84 89
172 136 288 153 30 5 1387 8 3015 7 l2960 -1 62 -21z"/>
</g>
</svg>
